STARTFONT 2.1
FONT -TakWolf-Retro Pixel Petty 5H-Regular-R-Normal-Sans Serif-5-50-75-75-P-47-ISO10646-1
SIZE 5 75 75
FONTBOUNDINGBOX 5 9 0 -2
STARTPROPERTIES 22
FOUNDRY "TakWolf"
FAMILY_NAME "Retro Pixel Petty 5H"
WEIGHT_NAME "Regular"
SLANT "R"
SETWIDTH_NAME "Normal"
ADD_STYLE_NAME "Sans Serif"
PIXEL_SIZE 5
POINT_SIZE 50
RESOLUTION_X 75
RESOLUTION_Y 75
SPACING "P"
AVERAGE_WIDTH 47
CHARSET_REGISTRY "ISO10646"
CHARSET_ENCODING "1"
DEFAULT_CHAR 65534
FONT_ASCENT 7
FONT_DESCENT 2
X_HEIGHT 5
CAP_HEIGHT 5
FONT_VERSION "2024.05.12"
COPYRIGHT "Copyright (c) 2023, TakWolf (https://takwolf.com), with Reserved Font Name 'Retro Pixel Petty 5H'."
LICENSE "This Font Software is licensed under the SIL Open Font License, Version 1.1."
ENDPROPERTIES
CHARS 96
STARTCHAR uni0020
ENCODING 32
SWIDTH 1000 0
DWIDTH 5 0
BBX 5 9 0 -2
BITMAP
00
00
00
00
00
00
00
00
00
ENDCHAR
STARTCHAR uni0021
ENCODING 33
SWIDTH 400 0
DWIDTH 2 0
BBX 2 9 0 -2
BITMAP
00
00
80
80
80
00
80
00
00
ENDCHAR
STARTCHAR uni0022
ENCODING 34
SWIDTH 800 0
DWIDTH 4 0
BBX 4 9 0 -2
BITMAP
00
00
A0
A0
00
00
00
00
00
ENDCHAR
STARTCHAR uni0023
ENCODING 35
SWIDTH 1200 0
DWIDTH 6 0
BBX 6 9 0 -2
BITMAP
00
00
50
F8
50
F8
50
00
00
ENDCHAR
STARTCHAR uni0024
ENCODING 36
SWIDTH 1200 0
DWIDTH 6 0
BBX 6 9 0 -2
BITMAP
00
00
70
A0
70
28
70
00
00
ENDCHAR
STARTCHAR uni0025
ENCODING 37
SWIDTH 800 0
DWIDTH 4 0
BBX 4 9 0 -2
BITMAP
00
00
A0
20
40
80
A0
00
00
ENDCHAR
STARTCHAR uni0026
ENCODING 38
SWIDTH 1000 0
DWIDTH 5 0
BBX 5 9 0 -2
BITMAP
00
00
40
A0
50
A0
50
00
00
ENDCHAR
STARTCHAR uni0027
ENCODING 39
SWIDTH 400 0
DWIDTH 2 0
BBX 2 9 0 -2
BITMAP
00
00
80
80
00
00
00
00
00
ENDCHAR
STARTCHAR uni0028
ENCODING 40
SWIDTH 600 0
DWIDTH 3 0
BBX 3 9 0 -2
BITMAP
00
00
40
80
80
80
40
00
00
ENDCHAR
STARTCHAR uni0029
ENCODING 41
SWIDTH 600 0
DWIDTH 3 0
BBX 3 9 0 -2
BITMAP
00
00
80
40
40
40
80
00
00
ENDCHAR
STARTCHAR uni002A
ENCODING 42
SWIDTH 1200 0
DWIDTH 6 0
BBX 6 9 0 -2
BITMAP
00
00
20
A8
70
A8
20
00
00
ENDCHAR
STARTCHAR uni002B
ENCODING 43
SWIDTH 800 0
DWIDTH 4 0
BBX 4 9 0 -2
BITMAP
00
00
00
40
E0
40
00
00
00
ENDCHAR
STARTCHAR uni002C
ENCODING 44
SWIDTH 600 0
DWIDTH 3 0
BBX 3 9 0 -2
BITMAP
00
00
00
00
00
40
80
00
00
ENDCHAR
STARTCHAR uni002D
ENCODING 45
SWIDTH 800 0
DWIDTH 4 0
BBX 4 9 0 -2
BITMAP
00
00
00
00
E0
00
00
00
00
ENDCHAR
STARTCHAR uni002E
ENCODING 46
SWIDTH 400 0
DWIDTH 2 0
BBX 2 9 0 -2
BITMAP
00
00
00
00
00
00
80
00
00
ENDCHAR
STARTCHAR uni002F
ENCODING 47
SWIDTH 800 0
DWIDTH 4 0
BBX 4 9 0 -2
BITMAP
00
00
20
20
40
80
80
00
00
ENDCHAR
STARTCHAR uni0030
ENCODING 48
SWIDTH 1000 0
DWIDTH 5 0
BBX 5 9 0 -2
BITMAP
00
00
60
B0
90
D0
60
00
00
ENDCHAR
STARTCHAR uni0031
ENCODING 49
SWIDTH 1000 0
DWIDTH 5 0
BBX 5 9 0 -2
BITMAP
00
00
20
E0
20
20
F0
00
00
ENDCHAR
STARTCHAR uni0032
ENCODING 50
SWIDTH 1000 0
DWIDTH 5 0
BBX 5 9 0 -2
BITMAP
00
00
E0
10
60
80
F0
00
00
ENDCHAR
STARTCHAR uni0033
ENCODING 51
SWIDTH 1000 0
DWIDTH 5 0
BBX 5 9 0 -2
BITMAP
00
00
E0
10
60
10
E0
00
00
ENDCHAR
STARTCHAR uni0034
ENCODING 52
SWIDTH 1000 0
DWIDTH 5 0
BBX 5 9 0 -2
BITMAP
00
00
30
50
90
F0
10
00
00
ENDCHAR
STARTCHAR uni0035
ENCODING 53
SWIDTH 1000 0
DWIDTH 5 0
BBX 5 9 0 -2
BITMAP
00
00
F0
80
E0
10
E0
00
00
ENDCHAR
STARTCHAR uni0036
ENCODING 54
SWIDTH 1000 0
DWIDTH 5 0
BBX 5 9 0 -2
BITMAP
00
00
60
80
E0
90
60
00
00
ENDCHAR
STARTCHAR uni0037
ENCODING 55
SWIDTH 1000 0
DWIDTH 5 0
BBX 5 9 0 -2
BITMAP
00
00
F0
10
20
40
40
00
00
ENDCHAR
STARTCHAR uni0038
ENCODING 56
SWIDTH 1000 0
DWIDTH 5 0
BBX 5 9 0 -2
BITMAP
00
00
60
90
60
90
60
00
00
ENDCHAR
STARTCHAR uni0039
ENCODING 57
SWIDTH 1000 0
DWIDTH 5 0
BBX 5 9 0 -2
BITMAP
00
00
60
90
70
10
60
00
00
ENDCHAR
STARTCHAR uni003A
ENCODING 58
SWIDTH 400 0
DWIDTH 2 0
BBX 2 9 0 -2
BITMAP
00
00
00
80
00
00
80
00
00
ENDCHAR
STARTCHAR uni003B
ENCODING 59
SWIDTH 600 0
DWIDTH 3 0
BBX 3 9 0 -2
BITMAP
00
00
00
40
00
40
80
00
00
ENDCHAR
STARTCHAR uni003C
ENCODING 60
SWIDTH 800 0
DWIDTH 4 0
BBX 4 9 0 -2
BITMAP
00
00
20
40
80
40
20
00
00
ENDCHAR
STARTCHAR uni003D
ENCODING 61
SWIDTH 800 0
DWIDTH 4 0
BBX 4 9 0 -2
BITMAP
00
00
00
E0
00
E0
00
00
00
ENDCHAR
STARTCHAR uni003E
ENCODING 62
SWIDTH 800 0
DWIDTH 4 0
BBX 4 9 0 -2
BITMAP
00
00
80
40
20
40
80
00
00
ENDCHAR
STARTCHAR uni003F
ENCODING 63
SWIDTH 1000 0
DWIDTH 5 0
BBX 5 9 0 -2
BITMAP
00
00
60
90
20
00
20
00
00
ENDCHAR
STARTCHAR uni0040
ENCODING 64
SWIDTH 1200 0
DWIDTH 6 0
BBX 6 9 0 -2
BITMAP
00
00
78
A8
B8
80
70
00
00
ENDCHAR
STARTCHAR uni0041
ENCODING 65
SWIDTH 1000 0
DWIDTH 5 0
BBX 5 9 0 -2
BITMAP
00
00
60
90
F0
90
90
00
00
ENDCHAR
STARTCHAR uni0042
ENCODING 66
SWIDTH 1000 0
DWIDTH 5 0
BBX 5 9 0 -2
BITMAP
00
00
E0
90
E0
90
E0
00
00
ENDCHAR
STARTCHAR uni0043
ENCODING 67
SWIDTH 1000 0
DWIDTH 5 0
BBX 5 9 0 -2
BITMAP
00
00
70
80
80
80
70
00
00
ENDCHAR
STARTCHAR uni0044
ENCODING 68
SWIDTH 1000 0
DWIDTH 5 0
BBX 5 9 0 -2
BITMAP
00
00
E0
90
90
90
E0
00
00
ENDCHAR
STARTCHAR uni0045
ENCODING 69
SWIDTH 1000 0
DWIDTH 5 0
BBX 5 9 0 -2
BITMAP
00
00
F0
80
E0
80
F0
00
00
ENDCHAR
STARTCHAR uni0046
ENCODING 70
SWIDTH 1000 0
DWIDTH 5 0
BBX 5 9 0 -2
BITMAP
00
00
F0
80
E0
80
80
00
00
ENDCHAR
STARTCHAR uni0047
ENCODING 71
SWIDTH 1000 0
DWIDTH 5 0
BBX 5 9 0 -2
BITMAP
00
00
70
80
B0
90
70
00
00
ENDCHAR
STARTCHAR uni0048
ENCODING 72
SWIDTH 1000 0
DWIDTH 5 0
BBX 5 9 0 -2
BITMAP
00
00
90
90
F0
90
90
00
00
ENDCHAR
STARTCHAR uni0049
ENCODING 73
SWIDTH 400 0
DWIDTH 2 0
BBX 2 9 0 -2
BITMAP
00
00
80
80
80
80
80
00
00
ENDCHAR
STARTCHAR uni004A
ENCODING 74
SWIDTH 1000 0
DWIDTH 5 0
BBX 5 9 0 -2
BITMAP
00
00
10
10
10
90
60
00
00
ENDCHAR
STARTCHAR uni004B
ENCODING 75
SWIDTH 1000 0
DWIDTH 5 0
BBX 5 9 0 -2
BITMAP
00
00
90
A0
C0
A0
90
00
00
ENDCHAR
STARTCHAR uni004C
ENCODING 76
SWIDTH 1000 0
DWIDTH 5 0
BBX 5 9 0 -2
BITMAP
00
00
80
80
80
80
F0
00
00
ENDCHAR
STARTCHAR uni004D
ENCODING 77
SWIDTH 1200 0
DWIDTH 6 0
BBX 6 9 0 -2
BITMAP
00
00
88
D8
A8
88
88
00
00
ENDCHAR
STARTCHAR uni004E
ENCODING 78
SWIDTH 1000 0
DWIDTH 5 0
BBX 5 9 0 -2
BITMAP
00
00
90
D0
B0
90
90
00
00
ENDCHAR
STARTCHAR uni004F
ENCODING 79
SWIDTH 1000 0
DWIDTH 5 0
BBX 5 9 0 -2
BITMAP
00
00
60
90
90
90
60
00
00
ENDCHAR
STARTCHAR uni0050
ENCODING 80
SWIDTH 1000 0
DWIDTH 5 0
BBX 5 9 0 -2
BITMAP
00
00
E0
90
E0
80
80
00
00
ENDCHAR
STARTCHAR uni0051
ENCODING 81
SWIDTH 1000 0
DWIDTH 5 0
BBX 5 9 0 -2
BITMAP
00
00
60
90
90
A0
50
00
00
ENDCHAR
STARTCHAR uni0052
ENCODING 82
SWIDTH 1000 0
DWIDTH 5 0
BBX 5 9 0 -2
BITMAP
00
00
E0
90
E0
90
90
00
00
ENDCHAR
STARTCHAR uni0053
ENCODING 83
SWIDTH 1000 0
DWIDTH 5 0
BBX 5 9 0 -2
BITMAP
00
00
70
80
60
10
E0
00
00
ENDCHAR
STARTCHAR uni0054
ENCODING 84
SWIDTH 1200 0
DWIDTH 6 0
BBX 6 9 0 -2
BITMAP
00
00
F8
20
20
20
20
00
00
ENDCHAR
STARTCHAR uni0055
ENCODING 85
SWIDTH 1000 0
DWIDTH 5 0
BBX 5 9 0 -2
BITMAP
00
00
90
90
90
90
60
00
00
ENDCHAR
STARTCHAR uni0056
ENCODING 86
SWIDTH 1200 0
DWIDTH 6 0
BBX 6 9 0 -2
BITMAP
00
00
88
88
50
50
20
00
00
ENDCHAR
STARTCHAR uni0057
ENCODING 87
SWIDTH 1200 0
DWIDTH 6 0
BBX 6 9 0 -2
BITMAP
00
00
A8
A8
A8
50
50
00
00
ENDCHAR
STARTCHAR uni0058
ENCODING 88
SWIDTH 1200 0
DWIDTH 6 0
BBX 6 9 0 -2
BITMAP
00
00
88
50
20
50
88
00
00
ENDCHAR
STARTCHAR uni0059
ENCODING 89
SWIDTH 1200 0
DWIDTH 6 0
BBX 6 9 0 -2
BITMAP
00
00
88
50
20
20
20
00
00
ENDCHAR
STARTCHAR uni005A
ENCODING 90
SWIDTH 1000 0
DWIDTH 5 0
BBX 5 9 0 -2
BITMAP
00
00
F0
20
40
80
F0
00
00
ENDCHAR
STARTCHAR uni005B
ENCODING 91
SWIDTH 600 0
DWIDTH 3 0
BBX 3 9 0 -2
BITMAP
00
00
C0
80
80
80
C0
00
00
ENDCHAR
STARTCHAR uni005C
ENCODING 92
SWIDTH 800 0
DWIDTH 4 0
BBX 4 9 0 -2
BITMAP
00
00
80
80
40
20
20
00
00
ENDCHAR
STARTCHAR uni005D
ENCODING 93
SWIDTH 600 0
DWIDTH 3 0
BBX 3 9 0 -2
BITMAP
00
00
C0
40
40
40
C0
00
00
ENDCHAR
STARTCHAR uni005E
ENCODING 94
SWIDTH 800 0
DWIDTH 4 0
BBX 4 9 0 -2
BITMAP
00
00
40
A0
00
00
00
00
00
ENDCHAR
STARTCHAR uni005F
ENCODING 95
SWIDTH 1000 0
DWIDTH 5 0
BBX 5 9 0 -2
BITMAP
00
00
00
00
00
00
F0
00
00
ENDCHAR
STARTCHAR uni0060
ENCODING 96
SWIDTH 600 0
DWIDTH 3 0
BBX 3 9 0 -2
BITMAP
00
00
80
40
00
00
00
00
00
ENDCHAR
STARTCHAR uni0041
ENCODING 97
SWIDTH 1000 0
DWIDTH 5 0
BBX 5 9 0 -2
BITMAP
00
00
60
90
F0
90
90
00
00
ENDCHAR
STARTCHAR uni0042
ENCODING 98
SWIDTH 1000 0
DWIDTH 5 0
BBX 5 9 0 -2
BITMAP
00
00
E0
90
E0
90
E0
00
00
ENDCHAR
STARTCHAR uni0043
ENCODING 99
SWIDTH 1000 0
DWIDTH 5 0
BBX 5 9 0 -2
BITMAP
00
00
70
80
80
80
70
00
00
ENDCHAR
STARTCHAR uni0044
ENCODING 100
SWIDTH 1000 0
DWIDTH 5 0
BBX 5 9 0 -2
BITMAP
00
00
E0
90
90
90
E0
00
00
ENDCHAR
STARTCHAR uni0045
ENCODING 101
SWIDTH 1000 0
DWIDTH 5 0
BBX 5 9 0 -2
BITMAP
00
00
F0
80
E0
80
F0
00
00
ENDCHAR
STARTCHAR uni0046
ENCODING 102
SWIDTH 1000 0
DWIDTH 5 0
BBX 5 9 0 -2
BITMAP
00
00
F0
80
E0
80
80
00
00
ENDCHAR
STARTCHAR uni0047
ENCODING 103
SWIDTH 1000 0
DWIDTH 5 0
BBX 5 9 0 -2
BITMAP
00
00
70
80
B0
90
70
00
00
ENDCHAR
STARTCHAR uni0048
ENCODING 104
SWIDTH 1000 0
DWIDTH 5 0
BBX 5 9 0 -2
BITMAP
00
00
90
90
F0
90
90
00
00
ENDCHAR
STARTCHAR uni0049
ENCODING 105
SWIDTH 400 0
DWIDTH 2 0
BBX 2 9 0 -2
BITMAP
00
00
80
80
80
80
80
00
00
ENDCHAR
STARTCHAR uni004A
ENCODING 106
SWIDTH 1000 0
DWIDTH 5 0
BBX 5 9 0 -2
BITMAP
00
00
10
10
10
90
60
00
00
ENDCHAR
STARTCHAR uni004B
ENCODING 107
SWIDTH 1000 0
DWIDTH 5 0
BBX 5 9 0 -2
BITMAP
00
00
90
A0
C0
A0
90
00
00
ENDCHAR
STARTCHAR uni004C
ENCODING 108
SWIDTH 1000 0
DWIDTH 5 0
BBX 5 9 0 -2
BITMAP
00
00
80
80
80
80
F0
00
00
ENDCHAR
STARTCHAR uni004D
ENCODING 109
SWIDTH 1200 0
DWIDTH 6 0
BBX 6 9 0 -2
BITMAP
00
00
88
D8
A8
88
88
00
00
ENDCHAR
STARTCHAR uni004E
ENCODING 110
SWIDTH 1000 0
DWIDTH 5 0
BBX 5 9 0 -2
BITMAP
00
00
90
D0
B0
90
90
00
00
ENDCHAR
STARTCHAR uni004F
ENCODING 111
SWIDTH 1000 0
DWIDTH 5 0
BBX 5 9 0 -2
BITMAP
00
00
60
90
90
90
60
00
00
ENDCHAR
STARTCHAR uni0050
ENCODING 112
SWIDTH 1000 0
DWIDTH 5 0
BBX 5 9 0 -2
BITMAP
00
00
E0
90
E0
80
80
00
00
ENDCHAR
STARTCHAR uni0051
ENCODING 113
SWIDTH 1000 0
DWIDTH 5 0
BBX 5 9 0 -2
BITMAP
00
00
60
90
90
A0
50
00
00
ENDCHAR
STARTCHAR uni0052
ENCODING 114
SWIDTH 1000 0
DWIDTH 5 0
BBX 5 9 0 -2
BITMAP
00
00
E0
90
E0
90
90
00
00
ENDCHAR
STARTCHAR uni0053
ENCODING 115
SWIDTH 1000 0
DWIDTH 5 0
BBX 5 9 0 -2
BITMAP
00
00
70
80
60
10
E0
00
00
ENDCHAR
STARTCHAR uni0054
ENCODING 116
SWIDTH 1200 0
DWIDTH 6 0
BBX 6 9 0 -2
BITMAP
00
00
F8
20
20
20
20
00
00
ENDCHAR
STARTCHAR uni0055
ENCODING 117
SWIDTH 1000 0
DWIDTH 5 0
BBX 5 9 0 -2
BITMAP
00
00
90
90
90
90
60
00
00
ENDCHAR
STARTCHAR uni0056
ENCODING 118
SWIDTH 1200 0
DWIDTH 6 0
BBX 6 9 0 -2
BITMAP
00
00
88
88
50
50
20
00
00
ENDCHAR
STARTCHAR uni0057
ENCODING 119
SWIDTH 1200 0
DWIDTH 6 0
BBX 6 9 0 -2
BITMAP
00
00
A8
A8
A8
50
50
00
00
ENDCHAR
STARTCHAR uni0058
ENCODING 120
SWIDTH 1200 0
DWIDTH 6 0
BBX 6 9 0 -2
BITMAP
00
00
88
50
20
50
88
00
00
ENDCHAR
STARTCHAR uni0059
ENCODING 121
SWIDTH 1200 0
DWIDTH 6 0
BBX 6 9 0 -2
BITMAP
00
00
88
50
20
20
20
00
00
ENDCHAR
STARTCHAR uni005A
ENCODING 122
SWIDTH 1000 0
DWIDTH 5 0
BBX 5 9 0 -2
BITMAP
00
00
F0
20
40
80
F0
00
00
ENDCHAR
STARTCHAR uni007B
ENCODING 123
SWIDTH 800 0
DWIDTH 4 0
BBX 4 9 0 -2
BITMAP
00
00
60
40
80
40
60
00
00
ENDCHAR
STARTCHAR uni007C
ENCODING 124
SWIDTH 400 0
DWIDTH 2 0
BBX 2 9 0 -2
BITMAP
00
00
80
80
80
80
80
00
00
ENDCHAR
STARTCHAR uni007D
ENCODING 125
SWIDTH 800 0
DWIDTH 4 0
BBX 4 9 0 -2
BITMAP
00
00
C0
40
20
40
C0
00
00
ENDCHAR
STARTCHAR uni007E
ENCODING 126
SWIDTH 1000 0
DWIDTH 5 0
BBX 5 9 0 -2
BITMAP
00
00
00
50
A0
00
00
00
00
ENDCHAR
STARTCHAR .notdef
ENCODING 65534
SWIDTH 1000 0
DWIDTH 5 0
BBX 5 9 0 -2
BITMAP
00
00
F0
90
90
90
F0
00
00
ENDCHAR
ENDFONT
